<svg xmlns="http://www.w3.org/2000/svg" viewBox="0 0 52 16" id="variant"><path d="M11.918 12.205c0 .949-.771 1.779-1.779 1.779a1.784 1.784 0 0 1-1.779-1.779c0-.949.771-1.779 1.779-1.779.889.06 1.779.831 1.779 1.779zm2.016 0A3.783 3.783 0 0 1 10.139 16a3.783 3.783 0 0 1-3.795-3.795 3.783 3.783 0 0 1 3.795-3.795c2.075.06 3.795 1.72 3.795 3.795zm-1.423 0c0-1.304-1.067-2.372-2.372-2.372S7.767 10.9 7.767 12.205s1.067 2.372 2.372 2.372c1.304.119 2.372-1.008 2.372-2.372zm24.724-8.004V2.659l-1.304-.712-1.127 2.313c-.059 0 2.431-.059 2.431-.059zm9.368 8.004A3.783 3.783 0 0 1 42.808 16a3.783 3.783 0 0 1-3.795-3.795 3.783 3.783 0 0 1 3.795-3.795c2.135.06 3.795 1.72 3.795 3.795zm-1.364 0a2.38 2.38 0 0 0-2.372-2.372c-1.304 0-2.372 1.067-2.372 2.372s1.067 2.372 2.372 2.372c1.305.119 2.372-1.008 2.372-2.372zm-2.371-1.778c-.949 0-1.779.771-1.779 1.779 0 .949.771 1.779 1.779 1.779.949 0 1.779-.771 1.779-1.779-.06-.949-.831-1.779-1.779-1.779zm9.131-1.779l-.474 3.854-4.21 1.779c.119-.593.237-1.245.237-1.719 0-2.55-2.075-4.803-4.625-4.803s-4.625 2.016-4.625 4.565c0 .474.059 1.245.237 1.719l-.237.237H14.586a8.785 8.785 0 0 0 .178-1.66c0-2.787-2.075-4.921-4.625-4.921s-4.625 2.49-4.625 5.04c0 .474.059.949.178 1.542h-.237l-2.431-.593-2.846-1.364L0 10.427l.474-.593-.118-1.601 1.542-1.482 1.482-.593c3.617-1.364 13.815-2.253 13.815-2.253S24.132.763 26.385.17c.059-.059.83-.119.83-.119v1.067c-2.372.652-6.403 2.55-8.894 3.973-6.878.118-11.502 1.244-11.502 1.244s3.676.059 7.589-.356c8.775-.712 24.31-.949 28.341-1.482.712-.119 1.838-.296 1.838-.296l6.996.889-.237 1.127.296 1.779.357.652zM5.218 6.81s-2.016.474-2.609.771c-1.008.592-1.542 2.193-1.542 2.193l2.312-.83L5.218 6.81z"/></svg>
