<svg xmlns="http://www.w3.org/2000/svg" viewBox="0 0 77.8 27" id="variant"><path d="M13.438 15.684a5.64 5.64 0 0 0-5.658 5.658A5.64 5.64 0 0 0 13.438 27a5.64 5.64 0 0 0 5.658-5.658c-.088-3.094-2.563-5.658-5.658-5.658zm0 9.371c-2.033 0-3.713-1.68-3.713-3.713s1.68-3.713 3.713-3.713c2.033 0 3.713 1.68 3.713 3.713s-1.591 3.713-3.713 3.713z"/><path d="M13.438 18.601c-1.503 0-2.829 1.238-2.741 2.741a2.755 2.755 0 0 0 2.741 2.741 2.74 2.74 0 0 0 1.945-.796c.53-.53.796-1.238.796-1.945a2.755 2.755 0 0 0-2.741-2.741zM66.572 15.684a5.64 5.64 0 0 0-5.658 5.658A5.64 5.64 0 0 0 66.572 27a5.64 5.64 0 0 0 5.658-5.658c0-3.094-2.564-5.658-5.658-5.658zm0 9.283c-1.945 0-3.625-1.591-3.625-3.536s1.591-3.625 3.536-3.625a3.546 3.546 0 0 1 3.536 3.536c.178 2.033-1.414 3.536-3.447 3.625z"/><path d="M76.916 13.473c-1.945-6.896-3.978-9.283-4.244-9.637l.707-.354-.177-.53C66.837 1.45 55.698-.23 40.934.301c-8.045.265-18.212 7.338-18.831 7.603-1.415.619-15.737 1.945-20.6 5.039L.177 16.391l.265 1.149-.442.442.53 4.067 6.189 1.326a7.528 7.528 0 0 1-.265-2.033c0-3.802 3.094-6.896 6.896-6.896s6.896 3.094 6.896 6.896c0 .707-.088 1.415-.265 2.033h39.961a7.528 7.528 0 0 1-.265-2.033 6.904 6.904 0 0 1 6.896-6.896c3.625 0 6.631 2.829 6.896 6.365v1.857l3.094-.973L77.8 14.8l-.884-1.327zM5.305 15.772l-3.183 1.149s.707-2.21 2.122-3.094c.796-.442 3.713-1.061 3.713-1.061l-2.652 3.006zm56.67-6.189c-.088 0-16.267.619-16.798.619-1.238 0-14.941.265-23.87 1.238-4.686.442-11.14.796-11.14.796s5.039-1.238 11.14-1.768c3.978-2.387 12.112-7.073 18.124-8.134 1.238-.177 5.128-.265 5.128-.265l-1.061 7.25c.619 0 2.475-.088 2.741-.088l1.061-7.25c5.128 0 8.752.088 12.466.619l1.857 6.1h1.945l-1.68-5.57c4.244.884 8.664 3.536 11.228 6.189-.09-.089-9.461.353-11.141.264z"/><path d="M66.572 18.69c-1.503.088-2.652 1.238-2.652 2.652s1.149 2.652 2.652 2.652c1.415 0 2.652-1.238 2.652-2.652s-1.237-2.652-2.652-2.652z"/></svg>
