<svg xmlns="http://www.w3.org/2000/svg" viewBox="0 0 82 25.9" id="variant"><path d="M80.869 13.345l-.653-5.597s-3.078-3.265-6.064-5.504l.653-.28-.187-.466C55.774.005 40.662-.648 34.784.845c-.933.28-3.452 1.679-11.381 6.903 0 0-13.713.84-18.658 2.799l-2.052.84-2.146 3.078.187 2.146-.746.746s.373 4.011.373 3.918l5.784 1.026h.187c-.187-.653-.373-1.399-.373-2.052 0-3.732 2.985-6.717 6.717-6.717s6.717 2.985 6.717 6.717c0 .746-.093 1.493-.373 2.146h38.715c-.187-.653-.373-1.399-.373-2.146a6.689 6.689 0 0 1 6.717-6.717 6.689 6.689 0 0 1 6.717 6.717c0 .466 0 .84-.093 1.306h.28l9.142-1.119 1.493-2.519.373-3.452c.09-.093-.376-.56-1.122-1.12zM5.026 14.652l-3.079 1.213s.653-2.146 2.052-2.985c.84-.466 3.545-1.119 3.545-1.119l-2.518 2.891zM65.57 8.868c-17.165.373-28.92.746-40.674 1.679-3.732.28-12.127.746-13.433 1.026.84-.28 5.224-1.493 12.967-1.959 5.038-3.825 9.702-6.717 11.101-7.09s5.038-.746 9.329-.746l-.653 6.717c.933 0 1.772-.093 2.705-.093l.653-6.53c2.985-.187 12.407.373 12.407.373l2.239 5.784h1.866l-2.239-5.597c2.425.187 5.784.56 8.489 1.493C74.245 5.324 76.95 8.31 76.95 8.31s-3.638.371-11.38.558z"/><path d="M64.17 14.838c-2.985 0-5.504 2.425-5.504 5.504 0 2.985 2.425 5.504 5.504 5.504 2.985 0 5.504-2.425 5.504-5.504-.093-3.078-2.519-5.504-5.504-5.504zm0 8.956a3.444 3.444 0 0 1-3.452-3.452 3.444 3.444 0 0 1 3.452-3.452c1.959 0 3.452 1.586 3.452 3.452s-1.586 3.452-3.452 3.452z"/><circle cx="64.17" cy="20.342" r="2.519"/><path d="M12.769 14.838c-2.985 0-5.504 2.425-5.504 5.504 0 2.985 2.425 5.504 5.504 5.504 2.985 0 5.504-2.425 5.504-5.504-.094-3.078-2.519-5.504-5.504-5.504zm0 8.956a3.444 3.444 0 0 1-3.452-3.452 3.444 3.444 0 0 1 3.452-3.452c1.959 0 3.452 1.586 3.452 3.452s-1.587 3.452-3.452 3.452z"/><circle cx="12.769" cy="20.342" r="2.519"/></svg>
