<svg
  xmlns:dc="http://purl.org/dc/elements/1.1/"
  xmlns:cc="http://creativecommons.org/ns#"
  xmlns:rdf="http://www.w3.org/1999/02/22-rdf-syntax-ns#"
  xmlns:svg="http://www.w3.org/2000/svg"
  xmlns="http://www.w3.org/2000/svg"
  version="1.1"
  width="200.67511"
  height="84.66938"
  viewBox="50.0 0 550.10 40.66938"
  id="svg2"
  xml:space="preserve"
>
  <metadata id="metadata8">
  </metadata>
  <defs id="defs6">
    <linearGradient id="linearGradient3760">
      <stop
        id="stop3762"
        style="stop-color: #000000; stop-opacity: 1"
        offset="0"
      />
    </linearGradient>
  </defs>
  <g
    transform="matrix(1.25,0,0,-1.25,15.00013,72.669375)"
    id="g10"
    style="fill: #080804; fill-opacity: 1; stroke: none"
  >
    <g
      transform="scale(0.1,0.1)"
      id="g12"
      style="fill: #080804; fill-opacity: 1; stroke: none"
    >
      <path
        d="m 367.008,469.344 c -12.473,0.011 -28.824,-8.133 -36.34,-18.086 L 3.77344,18.2305 C -3.73828,8.28125 0.316406,0.136719 12.7891,0.136719 l 379.6489,0 c 12.468,0 28.828,8.144531 36.347,18.093781 L 755.973,451.102 c 7.519,9.953 3.465,18.097 -9.004,18.105 l -379.961,0.137"
        id="path14"
        style="fill: #080804; fill-opacity: 1; fill-rule: nonzero; stroke: none"
      />
      <path
        d="m 1047.39,451.258 c 7.51,9.953 3.45,18.097 -9.02,18.097 l -178.393,0 c -12.473,0 -28.829,-8.144 -36.344,-18.097 L 496.594,18.2305 C 489.078,8.28125 493.129,0.136719 505.602,0.136719 l 178.554,0 c 12.469,0 28.824,8.144531 36.336,18.093781 L 1047.39,451.258"
        id="path16"
        style="fill: #080804; fill-opacity: 1; fill-rule: nonzero; stroke: none"
      />
      <path
        d="m 1154.66,469.355 c -12.47,0 -28.83,-8.144 -36.34,-18.097 L 791.277,18.2305 C 783.766,8.28125 787.816,0.136719 800.289,0.136719 l 136.055,0 c 12.468,0 28.828,8.144531 36.344,18.093781 L 1299.73,451.258 c 7.51,9.953 3.46,18.097 -9.01,18.097 l -136.06,0"
        id="path18"
        style="fill: #080804; fill-opacity: 1; fill-rule: nonzero; stroke: none"
      />
      <path
        d="M 1063.46,18.0859 C 1055.95,8.125 1060,-0.0117188 1072.48,0.0078125 l 93.71,0.0976565 c 12.47,0.019531 28.82,8.175781 36.34,18.125031 l 326.88,432.8715 c 7.52,9.953 3.47,18.105 -9,18.125 l -93.72,0.097 c -12.47,0.02 -28.82,-8.113 -36.33,-18.074 L 1063.46,18.0859"
        id="path20"
        style="fill: #080804; fill-opacity: 1; fill-rule: nonzero; stroke: none"
      />
      <path
        d="m 1307.25,18.2031 c -7.53,-9.93357 -3.5,-18.066381 8.98,-18.066381 l 68.08,0 c 12.47,0 28.84,8.132811 36.37,18.074181 l 326.83,431.3481 c 7.53,9.941 3.49,18.078 -8.98,18.078 l -67.77,0 c -12.47,0 -28.85,-8.137 -36.38,-18.067 L 1307.25,18.2031"
        id="path22"
        style="fill: #080804; fill-opacity: 1; fill-rule: nonzero; stroke: none"
      />
      <path
        d="m 1910.13,230.609 c -12.47,0 -16.53,8.145 -9.03,18.106 l 60.52,80.344 c 7.51,9.961 23.85,18.109 36.32,18.109 l 421.06,0 c 12.47,0 22.69,-10.207 22.71,-22.676 l 0.1,-71.054 c 0.02,-12.473 -10.18,-22.68 -22.65,-22.68 l -509.03,-0.149 z m -24.22,237.024 c -12.47,0.004 -28.83,-8.133 -36.36,-18.074 L 1522.71,18.0547 C 1515.18,8.11328 1519.22,-0.0117188 1531.69,0 l 158.72,0.117188 c 12.47,0.007812 28.83,8.152342 36.36,18.093712 l 52.15,68.8477 c 7.53,9.9414 23.9,18.0784 36.37,18.0864 l 603.71,0.136 c 12.47,0.012 22.68,-10.1951 22.68,-22.6638 l 0,-59.8047 c 0,-12.4727 10.2,-22.6875 22.68,-22.695312 L 2589,0 c 12.47,-0.0117188 22.68,10.1836 22.68,22.6562 l 0,422.1488 c 0,12.468 -10.21,22.675 -22.68,22.679 l -703.09,0.149"
        id="path24"
        style="fill: #080804; fill-opacity: 1; fill-rule: nonzero; stroke: none"
      />
      <path
        d="m 2695.74,22.8125 c 0,-12.4727 10.21,-22.675781 22.68,-22.675781 l 124.65,0 c 12.47,0 22.68,10.203081 22.68,22.675781 l 0.14,238.3985 c 0,12.469 8.8,17.488 19.54,11.152 l 235.94,-139.14 c 10.74,-6.34 29.73,-11.512 42.2,-11.496 l 90.59,0.097 c 12.47,0.02 31.47,5.207 42.22,11.535 l 235.91,138.868 c 10.75,6.328 19.54,1.296 19.54,-11.172 l -0.14,-238.2425 c 0,-12.4727 10.19,-22.675781 22.67,-22.675781 l 124.8,0 c 12.47,0 22.68,10.203081 22.68,22.675781 l 0,421.9925 c 0,12.468 -10.21,22.683 -22.68,22.695 l -124.65,0.117 c -12.47,0.008 -31.25,-5.519 -41.72,-12.285 L 3228.07,258.379 c -10.47,-6.77 -27.62,-6.77 -38.1,0 l -305.02,196.953 c -10.48,6.766 -29.26,12.293 -41.73,12.285 l -124.8,-0.117 c -12.47,-0.012 -22.68,-10.227 -22.68,-22.695 l 0,-421.9925"
        id="path26"
        style="fill: #080804; fill-opacity: 1; fill-rule: nonzero; stroke: none"
      />
      <path
        d="m 3806.84,22.8125 c 0,-12.4727 10.2,-22.675781 22.67,-22.675781 l 921.21,0 c 12.47,0 22.68,10.203081 22.68,22.675781 l 0,233.5545 c 0,12.469 -10.21,22.676 -22.68,22.684 l -453.55,0.137 c -12.47,0.011 -22.66,-10.196 -22.64,-22.665 l 0.08,-45.273 c 0.02,-12.473 10.24,-22.688 22.71,-22.695 l 283.4,-0.274 c 12.47,-0.011 22.68,-10.226 22.68,-22.695 l 0,-24.024 c 0,-12.472 -10.21,-22.675 -22.68,-22.667 l -581.05,0.136 c -12.47,0.012 -22.68,10.215 -22.68,22.688 l 0,184.179 c 0,12.469 10.21,22.676 22.68,22.676 l 751.05,0.156 c 12.47,0 22.68,10.204 22.68,22.676 l 0,73.555 c 0,12.469 -10.21,22.676 -22.68,22.676 l -921.21,-0.157 c -12.47,0 -22.67,-10.207 -22.67,-22.675 l 0,-421.9925"
        id="path28"
        style="fill: #080804; fill-opacity: 1; fill-rule: nonzero; stroke: none"
      />
    </g>
  </g>
</svg>