<svg class="footer-brands-logo__maybach" width="128.11876" height="12" viewBox="0 0 128.11876 12" version="1.1" xmlns:xlink="http://www.w3.org/1999/xlink" xmlns="http://www.w3.org/2000/svg" xmlns:svg="http://www.w3.org/2000/svg" xmlns:rdf="http://www.w3.org/1999/02/22-rdf-syntax-ns#" xmlns:cc="http://creativecommons.org/ns#" xmlns:dc="http://purl.org/dc/elements/1.1/">
  <defs id="defs5">
	<polygon id="path-1" points="503.04169,0 503.04169,47.116444 0,47.116444 0,0 "/>
  </defs>
  <g id="Desktop_XL_Height-46_Mercedes-Maybach_logo" stroke="none" stroke-width="1" fill="none" fill-rule="evenodd" transform="matrix(0.25468815,0,0,0.25468815,0,-3.1683206e-4)">
	<rect id="Rectangle-Copy-8" fill-opacity="0.2" fill="#ff0000" opacity="0" x="0" y="1" width="63.02" height="46"/>
	<g id="Mercedes-Maybach_Brand_Mark" transform="translate(0,0.001244)">
	  <g id="Clip-2"/>
	  <path d="m 456.01175,1.024 h -8.17936 v 45.064889 h 8.17936 V 24.583111 h 38.85059 v 21.505778 h 8.18822 V 1.024 h -8.18822 V 20.483556 H 456.01175 Z M 426.35738,3.072 C 420.33422,1.1182222 413.34744,0 405.91521,0 c -19.20169,0 -34.76003,10.547556 -34.76003,23.555556 0,13.013333 15.55834,23.560888 34.76003,23.560888 7.43223,0 14.41901,-1.128888 20.44217,-3.079111 v -4.746666 c -5.73034,2.346666 -12.80231,3.729777 -20.44217,3.729777 -14.40304,0 -26.07313,-8.72 -26.07313,-19.464888 0,-10.744889 11.67009,-19.4577782 26.07313,-19.4577782 7.63986,0 14.71183,1.3777778 20.44217,3.7208889 z M 312.65569,32.773333 327.18118,7.6444444 341.71732,32.773333 Z M 323.09949,1.024 296.51172,46.088889 h 8.442 l 5.32927,-9.217778 h 33.79817 l 5.33104,9.217778 h 8.44732 L 331.27175,1.024 Z m -87.93912,4.0977778 h 21.47501 c 5.08437,0 9.2051,3.4382222 9.2051,7.6800002 0,4.241778 -4.12073,7.681778 -9.2051,7.681778 h -21.47501 z m 26.58954,19.4577782 c 5.64693,0 10.22198,3.895111 10.22198,8.707555 0,4.808889 -4.57505,8.704 -10.22198,8.704 H 235.16037 V 24.579556 Z m 7.62567,-3.333334 c 2.86428,-2.138666 4.64425,-5.132444 4.64425,-8.444444 C 274.01983,6.2968889 267.15017,1.024 258.6851,1.024 h -31.70586 v 45.064889 h 36.81329 c 9.03296,0 16.35871,-5.731556 16.35871,-12.801778 0,-5.537778 -4.48986,-10.254222 -10.77566,-12.040889 z M 197.62301,1.024 177.9049,22.531556 158.18679,1.024 h -8.91228 l 24.41383,26.624 v 18.440889 h 8.43312 V 27.648 L 206.53352,1.024 Z M 126.99913,32.773333 H 97.937493 L 112.47008,7.6444444 Z M 108.37952,1.024 81.795296,46.088889 h 8.443774 l 5.329268,-9.217778 h 33.799942 l 5.32927,9.217778 h 8.442 L 116.55887,1.024 Z M 7.9238028,8.6008889 30.673014,30.350222 53.424,8.6008889 V 46.088889 h 7.922028 V 1.024 H 53.166676 L 30.673014,22.531556 8.1793521,1.024 H 0 v 45.064889 h 7.9238028 z" id="Fill-1" fill="#000000" />
	</g>
  </g>
</svg>